<?xml version="1.0" encoding="UTF-8"?>
<svg xmlns="http://www.w3.org/2000/svg" width="512" height="512" viewBox="0 0 128 128"><path d="M64,13.417A50.545,50.545,0,0,0,20.019,88.938a1.673,1.673,0,0,0,.113.253,1.546,1.546,0,0,0,.13.169,50.853,50.853,0,0,0,7.7,10.094,1.481,1.481,0,0,0,.421.428,50.9,50.9,0,0,0,10.071,7.752,1.742,1.742,0,0,0,.2.141,1.768,1.768,0,0,0,.176.073,50.289,50.289,0,0,0,12.006,4.987c.014,0,.025.011.039.015s.016,0,.024,0a50.471,50.471,0,0,0,26.2,0c.008,0,.016,0,.024,0s.025-.011.039-.015a50.289,50.289,0,0,0,12.006-4.987,1.675,1.675,0,0,0,.176-.073,1.742,1.742,0,0,0,.2-.141,50.877,50.877,0,0,0,10.072-7.753,1.494,1.494,0,0,0,.418-.425,50.893,50.893,0,0,0,7.709-10.1,1.454,1.454,0,0,0,.126-.164,1.8,1.8,0,0,0,.111-.246A50.546,50.546,0,0,0,64,13.417Zm41.658,72.489-2.047-1.174a1.75,1.75,0,0,0-1.742,3.036l2.04,1.17a47.344,47.344,0,0,1-5.368,7.013l-1.666-1.66A1.75,1.75,0,0,0,94.4,96.77l1.666,1.659a47.365,47.365,0,0,1-6.99,5.389l-1.175-2.034a1.75,1.75,0,0,0-3.031,1.752l1.182,2.045a46.834,46.834,0,0,1-8.159,3.407l-.618-2.293a1.75,1.75,0,0,0-3.379.91l.614,2.28a47,47,0,0,1-8.764,1.154V108.67a1.75,1.75,0,0,0-3.5,0v2.369a47.015,47.015,0,0,1-8.764-1.154l.614-2.28a1.75,1.75,0,0,0-3.38-.91l-.617,2.293a46.8,46.8,0,0,1-8.159-3.407l1.181-2.045a1.75,1.75,0,0,0-3.03-1.752l-1.175,2.034a47.372,47.372,0,0,1-6.99-5.39L33.6,96.77a1.75,1.75,0,1,0-2.47-2.479l-1.666,1.66a47.344,47.344,0,0,1-5.368-7.013l2.039-1.17a1.75,1.75,0,1,0-1.741-3.036l-2.047,1.174a47.083,47.083,0,1,1,83.316,0Z"/><path d="M64,22.847A41.153,41.153,0,1,0,105.154,64,41.2,41.2,0,0,0,64,22.847ZM26.346,64a37.632,37.632,0,0,1,.227-4.092h1.415a4.092,4.092,0,1,1,0,8.183H26.572A37.868,37.868,0,0,1,26.346,64ZM64,101.653A37.718,37.718,0,0,1,27.115,71.591h.873a7.6,7.6,0,0,0,7.38-5.841H48.1a1.75,1.75,0,1,0,0-3.5H35.368a7.6,7.6,0,0,0-7.38-5.842h-.872a37.659,37.659,0,0,1,73.769,0h-.873a7.6,7.6,0,0,0-7.379,5.842H79.9a1.75,1.75,0,0,0,0,3.5H92.633a7.6,7.6,0,0,0,7.379,5.841h.873A37.718,37.718,0,0,1,64,101.653ZM101.654,64a37.868,37.868,0,0,1-.226,4.091h-1.416a4.092,4.092,0,0,1,0-8.183h1.416A37.887,37.887,0,0,1,101.654,64Z"/><path d="M61.17,32.629h5.66a1.75,1.75,0,1,0,0-3.5H61.17a1.75,1.75,0,0,0,0,3.5Z"/><path d="M72.33,35.753H55.67a1.75,1.75,0,0,0,0,3.5H72.33a1.75,1.75,0,0,0,0-3.5Z"/><path d="M66.83,45.877a1.75,1.75,0,0,0,0-3.5H61.17a1.75,1.75,0,0,0,0,3.5Z"/><path d="M72.33,49H55.67a1.75,1.75,0,0,0,0,3.5H72.33a1.75,1.75,0,0,0,0-3.5Z"/><path d="M66.83,59.126a1.75,1.75,0,0,0,0-3.5H61.17a1.75,1.75,0,0,0,0,3.5Z"/><path d="M72.33,62.25H55.67a1.75,1.75,0,0,0,0,3.5H72.33a1.75,1.75,0,0,0,0-3.5Z"/><path d="M66.83,72.374a1.75,1.75,0,1,0,0-3.5H61.17a1.75,1.75,0,1,0,0,3.5Z"/><path d="M72.33,75.5H55.67a1.75,1.75,0,0,0,0,3.5H72.33a1.75,1.75,0,0,0,0-3.5Z"/><path d="M66.83,85.623a1.75,1.75,0,0,0,0-3.5H61.17a1.75,1.75,0,0,0,0,3.5Z"/><path d="M72.33,88.747H55.67a1.75,1.75,0,0,0,0,3.5H72.33a1.75,1.75,0,0,0,0-3.5Z"/><path d="M66.83,95.371H61.17a1.75,1.75,0,0,0,0,3.5h5.66a1.75,1.75,0,0,0,0-3.5Z"/></svg>
